<?xml version="1.0" standalone="no"?>
<!DOCTYPE svg PUBLIC "-//W3C//DTD SVG 20010904//EN"
 "http://www.w3.org/TR/2001/REC-SVG-20010904/DTD/svg10.dtd">
<svg version="1.0" xmlns="http://www.w3.org/2000/svg"
 width="1580.000000pt" height="1456.000000pt" viewBox="0 0 1580.000000 1456.000000"
 preserveAspectRatio="xMidYMid meet">

<g transform="translate(0.000000,1456.000000) scale(0.100000,-0.100000)"
fill="#000000" stroke="none">
<path d="M0 14548 c0 -10 1585 -13 7892 -13 l7893 0 5 -7270 5 -7270 3 7283 2
7282 -7900 0 c-6313 0 -7900 -3 -7900 -12z"/>
<path d="M470 7270 l0 -6810 7428 2 7427 3 0 6805 0 6805 -7427 3 -7428 2 0
-6810z m5755 5475 c277 -24 398 -41 678 -96 408 -80 858 -242 1197 -431 713
-399 1134 -980 1220 -1683 14 -113 14 -405 1 -509 -77 -583 -446 -1124 -1057
-1552 -479 -335 -1099 -581 -1726 -684 -106 -17 -168 -39 -168 -60 0 -4 105
-10 233 -13 488 -13 915 -89 1392 -248 378 -126 786 -339 1087 -565 126 -94
160 -124 317 -278 408 -400 655 -883 738 -1446 21 -145 24 -535 5 -695 -19
-157 -75 -403 -128 -557 -80 -236 -234 -523 -392 -733 -161 -213 -423 -462
-658 -627 -587 -411 -1269 -656 -2129 -765 l-220 -28 -2374 0 -2374 0 -20 28
-21 27 21 28 20 27 414 5 c436 5 441 6 473 52 14 20 16 550 16 5330 l0 5307
-24 28 -24 28 -419 3 -418 3 -17 22 c-22 27 -22 46 -2 75 l15 22 2087 0 c1753
0 2114 -2 2257 -15z m6059 6 c4 -5 3 -16 0 -25 -5 -13 -33 -16 -182 -18 l-176
-3 -13 -25 c-20 -39 -14 -4310 6 -4334 13 -15 70 -16 770 -13 845 3 795 -1
956 77 177 86 295 221 376 430 43 113 51 176 58 445 l6 260 25 0 25 0 3 -632
2 -633 -1484 0 c-1059 0 -1487 3 -1492 11 -16 26 21 34 184 39 165 5 167 5
179 30 20 39 14 4310 -6 4333 -11 15 -37 17 -175 17 -88 0 -167 4 -175 9 -8 5
-11 16 -8 25 6 14 62 16 561 16 322 0 557 -4 560 -9z m1676 -5481 l0 -230
-1470 0 -1470 0 0 230 0 230 1470 0 1470 0 0 -230z"/>
<path d="M3733 12626 c-17 -8 -36 -23 -42 -35 -8 -14 -11 -709 -11 -2375 l0
-2355 24 -28 24 -28 1114 0 c1199 0 1230 1 1583 57 519 81 983 274 1280 534
402 350 615 779 701 1409 22 163 26 673 6 835 -64 521 -246 943 -540 1252
-392 412 -906 640 -1632 724 -126 15 -296 18 -1310 21 -989 2 -1170 1 -1197
-11z"/>
<path d="M3732 7665 c-18 -8 -37 -26 -42 -40 -7 -17 -10 -1006 -10 -2850 l0
-2824 24 -28 24 -28 1244 -3 c1296 -3 1536 2 1801 38 699 95 1244 345 1658
759 74 75 162 172 195 216 298 396 467 840 540 1415 24 194 30 683 10 903 -43
490 -149 861 -340 1199 -406 716 -1154 1113 -2301 1223 -297 28 -606 35 -1690
34 -909 0 -1085 -2 -1113 -14z"/>
</g>
</svg>
